G04 #@! TF.GenerationSoftware,KiCad,Pcbnew,6.0.7-f9a2dced07~116~ubuntu20.04.1*
G04 #@! TF.CreationDate,2022-09-06T19:45:12+02:00*
G04 #@! TF.ProjectId,wled-lion,776c6564-2d6c-4696-9f6e-2e6b69636164,rev?*
G04 #@! TF.SameCoordinates,Original*
G04 #@! TF.FileFunction,Soldermask,Bot*
G04 #@! TF.FilePolarity,Negative*
%FSLAX46Y46*%
G04 Gerber Fmt 4.6, Leading zero omitted, Abs format (unit mm)*
G04 Created by KiCad (PCBNEW 6.0.7-f9a2dced07~116~ubuntu20.04.1) date 2022-09-06 19:45:12*
%MOMM*%
%LPD*%
G01*
G04 APERTURE LIST*
G04 Aperture macros list*
%AMRoundRect*
0 Rectangle with rounded corners*
0 $1 Rounding radius*
0 $2 $3 $4 $5 $6 $7 $8 $9 X,Y pos of 4 corners*
0 Add a 4 corners polygon primitive as box body*
4,1,4,$2,$3,$4,$5,$6,$7,$8,$9,$2,$3,0*
0 Add four circle primitives for the rounded corners*
1,1,$1+$1,$2,$3*
1,1,$1+$1,$4,$5*
1,1,$1+$1,$6,$7*
1,1,$1+$1,$8,$9*
0 Add four rect primitives between the rounded corners*
20,1,$1+$1,$2,$3,$4,$5,0*
20,1,$1+$1,$4,$5,$6,$7,0*
20,1,$1+$1,$6,$7,$8,$9,0*
20,1,$1+$1,$8,$9,$2,$3,0*%
G04 Aperture macros list end*
G04 #@! TA.AperFunction,Profile*
%ADD10C,0.050000*%
G04 #@! TD*
%ADD11C,0.100000*%
%ADD12RoundRect,0.051000X-0.850000X-0.850000X0.850000X-0.850000X0.850000X0.850000X-0.850000X0.850000X0*%
%ADD13O,1.802000X1.802000*%
%ADD14RoundRect,0.051000X0.775000X0.650000X-0.775000X0.650000X-0.775000X-0.650000X0.775000X-0.650000X0*%
G04 APERTURE END LIST*
D10*
X182372000Y-84582000D02*
X148450000Y-84550000D01*
X198350000Y-84328000D02*
X198374000Y-96012000D01*
X190500000Y-85598000D02*
X196850000Y-85598000D01*
X190500000Y-94996000D02*
X196850000Y-94996000D01*
X182372000Y-95758000D02*
X182372000Y-94996000D01*
X148450000Y-84550000D02*
X148500000Y-95758000D01*
X187452000Y-94996000D02*
X187452000Y-95758000D01*
X190500000Y-84582000D02*
X190500000Y-85598000D01*
X182372000Y-85598000D02*
X187452000Y-85598000D01*
X187452000Y-95758000D02*
X190500000Y-95758000D01*
X182372000Y-85598000D02*
X182372000Y-84582000D01*
X187452000Y-85598000D02*
X187452000Y-84582000D01*
X198350000Y-84328000D02*
X196850000Y-84582000D01*
X196850000Y-94996000D02*
X196850000Y-95758000D01*
X187452000Y-84582000D02*
X190500000Y-84582000D01*
X196850000Y-95758000D02*
X198374000Y-96012000D01*
X182372000Y-94996000D02*
X187452000Y-94996000D01*
X190500000Y-95758000D02*
X190500000Y-94996000D01*
X196850000Y-84582000D02*
X196850000Y-85598000D01*
X148500000Y-95758000D02*
X182372000Y-95758000D01*
G36*
X182025000Y-94075000D02*
G01*
X180850000Y-95300000D01*
X177900000Y-95300000D01*
X176725000Y-94125000D01*
X177900000Y-92900000D01*
X180850000Y-92900000D01*
X182025000Y-94075000D01*
G37*
D11*
X182025000Y-94075000D02*
X180850000Y-95300000D01*
X177900000Y-95300000D01*
X176725000Y-94125000D01*
X177900000Y-92900000D01*
X180850000Y-92900000D01*
X182025000Y-94075000D01*
D10*
X182372000Y-84582000D02*
X148450000Y-84550000D01*
X198350000Y-84328000D02*
X198374000Y-96012000D01*
X190500000Y-85598000D02*
X196850000Y-85598000D01*
X190500000Y-94996000D02*
X196850000Y-94996000D01*
X182372000Y-95758000D02*
X182372000Y-94996000D01*
X148450000Y-84550000D02*
X148500000Y-95758000D01*
X187452000Y-94996000D02*
X187452000Y-95758000D01*
X190500000Y-84582000D02*
X190500000Y-85598000D01*
X182372000Y-85598000D02*
X187452000Y-85598000D01*
X187452000Y-95758000D02*
X190500000Y-95758000D01*
X182372000Y-85598000D02*
X182372000Y-84582000D01*
X187452000Y-85598000D02*
X187452000Y-84582000D01*
X198350000Y-84328000D02*
X196850000Y-84582000D01*
X196850000Y-94996000D02*
X196850000Y-95758000D01*
X187452000Y-84582000D02*
X190500000Y-84582000D01*
X196850000Y-95758000D02*
X198374000Y-96012000D01*
X182372000Y-94996000D02*
X187452000Y-94996000D01*
X190500000Y-95758000D02*
X190500000Y-94996000D01*
X196850000Y-84582000D02*
X196850000Y-85598000D01*
X148500000Y-95758000D02*
X182372000Y-95758000D01*
G36*
X182025000Y-94075000D02*
G01*
X180850000Y-95300000D01*
X177900000Y-95300000D01*
X176725000Y-94125000D01*
X177900000Y-92900000D01*
X180850000Y-92900000D01*
X182025000Y-94075000D01*
G37*
D11*
X182025000Y-94075000D02*
X180850000Y-95300000D01*
X177900000Y-95300000D01*
X176725000Y-94125000D01*
X177900000Y-92900000D01*
X180850000Y-92900000D01*
X182025000Y-94075000D01*
D12*
X152850000Y-86400000D03*
D13*
X150310000Y-86400000D03*
X152850000Y-88940000D03*
X150310000Y-88940000D03*
X152850000Y-91480000D03*
X150310000Y-91480000D03*
X152850000Y-94020000D03*
X150310000Y-94020000D03*
D12*
X174100000Y-87550000D03*
D13*
X174100000Y-90090000D03*
X174100000Y-92630000D03*
D12*
X167850000Y-91350000D03*
D13*
X167850000Y-93890000D03*
D14*
X165239000Y-88148000D03*
X157289000Y-88148000D03*
X157289000Y-92648000D03*
X165239000Y-92648000D03*
M02*
