G04 #@! TF.GenerationSoftware,KiCad,Pcbnew,6.0.7-f9a2dced07~116~ubuntu20.04.1*
G04 #@! TF.CreationDate,2022-09-06T19:45:12+02:00*
G04 #@! TF.ProjectId,wled-lion,776c6564-2d6c-4696-9f6e-2e6b69636164,rev?*
G04 #@! TF.SameCoordinates,Original*
G04 #@! TF.FileFunction,Profile,NP*
%FSLAX46Y46*%
G04 Gerber Fmt 4.6, Leading zero omitted, Abs format (unit mm)*
G04 Created by KiCad (PCBNEW 6.0.7-f9a2dced07~116~ubuntu20.04.1) date 2022-09-06 19:45:12*
%MOMM*%
%LPD*%
G01*
G04 APERTURE LIST*
G04 #@! TA.AperFunction,Profile*
%ADD10C,0.050000*%
G04 #@! TD*
G04 APERTURE END LIST*
D10*
X182372000Y-84582000D02*
X148450000Y-84550000D01*
X198350000Y-84328000D02*
X198374000Y-96012000D01*
X190500000Y-85598000D02*
X196850000Y-85598000D01*
X190500000Y-94996000D02*
X196850000Y-94996000D01*
X182372000Y-95758000D02*
X182372000Y-94996000D01*
X148450000Y-84550000D02*
X148500000Y-95758000D01*
X187452000Y-94996000D02*
X187452000Y-95758000D01*
X190500000Y-84582000D02*
X190500000Y-85598000D01*
X182372000Y-85598000D02*
X187452000Y-85598000D01*
X187452000Y-95758000D02*
X190500000Y-95758000D01*
X182372000Y-85598000D02*
X182372000Y-84582000D01*
X187452000Y-85598000D02*
X187452000Y-84582000D01*
X198350000Y-84328000D02*
X196850000Y-84582000D01*
X196850000Y-94996000D02*
X196850000Y-95758000D01*
X187452000Y-84582000D02*
X190500000Y-84582000D01*
X196850000Y-95758000D02*
X198374000Y-96012000D01*
X182372000Y-94996000D02*
X187452000Y-94996000D01*
X190500000Y-95758000D02*
X190500000Y-94996000D01*
X196850000Y-84582000D02*
X196850000Y-85598000D01*
X148500000Y-95758000D02*
X182372000Y-95758000D01*
M02*
