G04 #@! TF.GenerationSoftware,KiCad,Pcbnew,6.0.7-f9a2dced07~116~ubuntu20.04.1*
G04 #@! TF.CreationDate,2022-09-06T19:45:12+02:00*
G04 #@! TF.ProjectId,wled-lion,776c6564-2d6c-4696-9f6e-2e6b69636164,rev?*
G04 #@! TF.SameCoordinates,Original*
G04 #@! TF.FileFunction,Copper,L1,Top*
G04 #@! TF.FilePolarity,Positive*
%FSLAX46Y46*%
G04 Gerber Fmt 4.6, Leading zero omitted, Abs format (unit mm)*
G04 Created by KiCad (PCBNEW 6.0.7-f9a2dced07~116~ubuntu20.04.1) date 2022-09-06 19:45:12*
%MOMM*%
%LPD*%
G01*
G04 APERTURE LIST*
G04 Aperture macros list*
%AMRoundRect*
0 Rectangle with rounded corners*
0 $1 Rounding radius*
0 $2 $3 $4 $5 $6 $7 $8 $9 X,Y pos of 4 corners*
0 Add a 4 corners polygon primitive as box body*
4,1,4,$2,$3,$4,$5,$6,$7,$8,$9,$2,$3,0*
0 Add four circle primitives for the rounded corners*
1,1,$1+$1,$2,$3*
1,1,$1+$1,$4,$5*
1,1,$1+$1,$6,$7*
1,1,$1+$1,$8,$9*
0 Add four rect primitives between the rounded corners*
20,1,$1+$1,$2,$3,$4,$5,0*
20,1,$1+$1,$4,$5,$6,$7,0*
20,1,$1+$1,$6,$7,$8,$9,0*
20,1,$1+$1,$8,$9,$2,$3,0*%
G04 Aperture macros list end*
%ADD10C,0.300000*%
G04 #@! TA.AperFunction,NonConductor*
%ADD11C,0.300000*%
G04 #@! TD*
G04 #@! TA.AperFunction,Profile*
%ADD12C,0.050000*%
G04 #@! TD*
%ADD13C,0.250000*%
G04 #@! TA.AperFunction,NonConductor*
%ADD14C,0.250000*%
G04 #@! TD*
G04 #@! TA.AperFunction,SMDPad,CuDef*
%ADD15RoundRect,0.243750X0.456250X-0.243750X0.456250X0.243750X-0.456250X0.243750X-0.456250X-0.243750X0*%
G04 #@! TD*
G04 #@! TA.AperFunction,ComponentPad*
%ADD16R,1.700000X1.700000*%
G04 #@! TD*
G04 #@! TA.AperFunction,ComponentPad*
%ADD17O,1.700000X1.700000*%
G04 #@! TD*
G04 #@! TA.AperFunction,SMDPad,CuDef*
%ADD18R,2.000000X1.500000*%
G04 #@! TD*
G04 #@! TA.AperFunction,SMDPad,CuDef*
%ADD19R,2.000000X3.800000*%
G04 #@! TD*
G04 #@! TA.AperFunction,ViaPad*
%ADD20C,0.800000*%
G04 #@! TD*
G04 #@! TA.AperFunction,Conductor*
%ADD21C,1.000000*%
G04 #@! TD*
G04 #@! TA.AperFunction,Conductor*
%ADD22C,0.500000*%
G04 #@! TD*
G04 APERTURE END LIST*
D10*
D11*
X183571428Y-92878571D02*
X183928571Y-94378571D01*
X184214285Y-93307142D01*
X184500000Y-94378571D01*
X184857142Y-92878571D01*
X186142857Y-94378571D02*
X185428571Y-94378571D01*
X185428571Y-92878571D01*
X186642857Y-93592857D02*
X187142857Y-93592857D01*
X187357142Y-94378571D02*
X186642857Y-94378571D01*
X186642857Y-92878571D01*
X187357142Y-92878571D01*
X188000000Y-94378571D02*
X188000000Y-92878571D01*
X188357142Y-92878571D01*
X188571428Y-92950000D01*
X188714285Y-93092857D01*
X188785714Y-93235714D01*
X188857142Y-93521428D01*
X188857142Y-93735714D01*
X188785714Y-94021428D01*
X188714285Y-94164285D01*
X188571428Y-94307142D01*
X188357142Y-94378571D01*
X188000000Y-94378571D01*
X189500000Y-93807142D02*
X190642857Y-93807142D01*
X192071428Y-94378571D02*
X191357142Y-94378571D01*
X191357142Y-92878571D01*
X192571428Y-94378571D02*
X192571428Y-93378571D01*
X192571428Y-92878571D02*
X192500000Y-92950000D01*
X192571428Y-93021428D01*
X192642857Y-92950000D01*
X192571428Y-92878571D01*
X192571428Y-93021428D01*
X193500000Y-94378571D02*
X193357142Y-94307142D01*
X193285714Y-94235714D01*
X193214285Y-94092857D01*
X193214285Y-93664285D01*
X193285714Y-93521428D01*
X193357142Y-93450000D01*
X193500000Y-93378571D01*
X193714285Y-93378571D01*
X193857142Y-93450000D01*
X193928571Y-93521428D01*
X194000000Y-93664285D01*
X194000000Y-94092857D01*
X193928571Y-94235714D01*
X193857142Y-94307142D01*
X193714285Y-94378571D01*
X193500000Y-94378571D01*
X194642857Y-93378571D02*
X194642857Y-94378571D01*
X194642857Y-93521428D02*
X194714285Y-93450000D01*
X194857142Y-93378571D01*
X195071428Y-93378571D01*
X195214285Y-93450000D01*
X195285714Y-93592857D01*
X195285714Y-94378571D01*
D12*
X182372000Y-84582000D02*
X148450000Y-84550000D01*
X198350000Y-84328000D02*
X198374000Y-96012000D01*
X190500000Y-85598000D02*
X196850000Y-85598000D01*
X190500000Y-94996000D02*
X196850000Y-94996000D01*
X182372000Y-95758000D02*
X182372000Y-94996000D01*
X148450000Y-84550000D02*
X148500000Y-95758000D01*
X187452000Y-94996000D02*
X187452000Y-95758000D01*
X190500000Y-84582000D02*
X190500000Y-85598000D01*
X182372000Y-85598000D02*
X187452000Y-85598000D01*
X187452000Y-95758000D02*
X190500000Y-95758000D01*
X182372000Y-85598000D02*
X182372000Y-84582000D01*
X187452000Y-85598000D02*
X187452000Y-84582000D01*
X198350000Y-84328000D02*
X196850000Y-84582000D01*
X196850000Y-94996000D02*
X196850000Y-95758000D01*
X187452000Y-84582000D02*
X190500000Y-84582000D01*
X196850000Y-95758000D02*
X198374000Y-96012000D01*
X182372000Y-94996000D02*
X187452000Y-94996000D01*
X190500000Y-95758000D02*
X190500000Y-94996000D01*
X196850000Y-84582000D02*
X196850000Y-85598000D01*
X148500000Y-95758000D02*
X182372000Y-95758000D01*
D13*
D14*
X157928571Y-85252380D02*
X158166666Y-86252380D01*
X158357142Y-85538095D01*
X158547619Y-86252380D01*
X158785714Y-85252380D01*
X159642857Y-86252380D02*
X159166666Y-86252380D01*
X159166666Y-85252380D01*
X159976190Y-85728571D02*
X160309523Y-85728571D01*
X160452380Y-86252380D02*
X159976190Y-86252380D01*
X159976190Y-85252380D01*
X160452380Y-85252380D01*
X160880952Y-86252380D02*
X160880952Y-85252380D01*
X161119047Y-85252380D01*
X161261904Y-85300000D01*
X161357142Y-85395238D01*
X161404761Y-85490476D01*
X161452380Y-85680952D01*
X161452380Y-85823809D01*
X161404761Y-86014285D01*
X161357142Y-86109523D01*
X161261904Y-86204761D01*
X161119047Y-86252380D01*
X160880952Y-86252380D01*
X162642857Y-85585714D02*
X162642857Y-86585714D01*
X162642857Y-85633333D02*
X162738095Y-85585714D01*
X162928571Y-85585714D01*
X163023809Y-85633333D01*
X163071428Y-85680952D01*
X163119047Y-85776190D01*
X163119047Y-86061904D01*
X163071428Y-86157142D01*
X163023809Y-86204761D01*
X162928571Y-86252380D01*
X162738095Y-86252380D01*
X162642857Y-86204761D01*
X163976190Y-86204761D02*
X163880952Y-86252380D01*
X163690476Y-86252380D01*
X163595238Y-86204761D01*
X163547619Y-86157142D01*
X163500000Y-86061904D01*
X163500000Y-85776190D01*
X163547619Y-85680952D01*
X163595238Y-85633333D01*
X163690476Y-85585714D01*
X163880952Y-85585714D01*
X163976190Y-85633333D01*
X164404761Y-86252380D02*
X164404761Y-85252380D01*
X164404761Y-85633333D02*
X164500000Y-85585714D01*
X164690476Y-85585714D01*
X164785714Y-85633333D01*
X164833333Y-85680952D01*
X164880952Y-85776190D01*
X164880952Y-86061904D01*
X164833333Y-86157142D01*
X164785714Y-86204761D01*
X164690476Y-86252380D01*
X164500000Y-86252380D01*
X164404761Y-86204761D01*
X166071428Y-86252380D02*
X166071428Y-85585714D01*
X166071428Y-85776190D02*
X166119047Y-85680952D01*
X166166666Y-85633333D01*
X166261904Y-85585714D01*
X166357142Y-85585714D01*
X167071428Y-86204761D02*
X166976190Y-86252380D01*
X166785714Y-86252380D01*
X166690476Y-86204761D01*
X166642857Y-86109523D01*
X166642857Y-85728571D01*
X166690476Y-85633333D01*
X166785714Y-85585714D01*
X166976190Y-85585714D01*
X167071428Y-85633333D01*
X167119047Y-85728571D01*
X167119047Y-85823809D01*
X166642857Y-85919047D01*
X167452380Y-85585714D02*
X167690476Y-86252380D01*
X167928571Y-85585714D01*
X169595238Y-86252380D02*
X169023809Y-86252380D01*
X169309523Y-86252380D02*
X169309523Y-85252380D01*
X169214285Y-85395238D01*
X169119047Y-85490476D01*
X169023809Y-85538095D01*
X170023809Y-86157142D02*
X170071428Y-86204761D01*
X170023809Y-86252380D01*
X169976190Y-86204761D01*
X170023809Y-86157142D01*
X170023809Y-86252380D01*
X170690476Y-85252380D02*
X170785714Y-85252380D01*
X170880952Y-85300000D01*
X170928571Y-85347619D01*
X170976190Y-85442857D01*
X171023809Y-85633333D01*
X171023809Y-85871428D01*
X170976190Y-86061904D01*
X170928571Y-86157142D01*
X170880952Y-86204761D01*
X170785714Y-86252380D01*
X170690476Y-86252380D01*
X170595238Y-86204761D01*
X170547619Y-86157142D01*
X170500000Y-86061904D01*
X170452380Y-85871428D01*
X170452380Y-85633333D01*
X170500000Y-85442857D01*
X170547619Y-85347619D01*
X170595238Y-85300000D01*
X170690476Y-85252380D01*
D15*
X156100000Y-94337500D03*
X156100000Y-92462500D03*
X156100000Y-90887500D03*
X156100000Y-89012500D03*
D16*
X152850000Y-86400000D03*
D17*
X150310000Y-86400000D03*
X152850000Y-88940000D03*
X150310000Y-88940000D03*
X152850000Y-91480000D03*
X150310000Y-91480000D03*
X152850000Y-94020000D03*
X150310000Y-94020000D03*
D16*
X174100000Y-87550000D03*
D17*
X174100000Y-90090000D03*
X174100000Y-92630000D03*
D18*
X158500000Y-89750000D03*
X158500000Y-92050000D03*
D19*
X164800000Y-92050000D03*
D18*
X158500000Y-94350000D03*
D16*
X167850000Y-91350000D03*
D17*
X167850000Y-93890000D03*
D20*
X162600000Y-87300000D03*
D21*
X167850000Y-91350000D02*
X167850000Y-89350000D01*
X169650000Y-87550000D02*
X174100000Y-87550000D01*
X159421120Y-88828880D02*
X160971120Y-88828880D01*
X167850000Y-89369080D02*
X167850000Y-91350000D01*
X158500000Y-89750000D02*
X159421120Y-88828880D01*
X167850000Y-89350000D02*
X169650000Y-87550000D01*
D22*
X156312500Y-89012500D02*
X157050000Y-89750000D01*
X154600000Y-90000000D02*
X155587500Y-89012500D01*
D21*
X158500000Y-88600000D02*
X158500000Y-89750000D01*
D22*
X156100000Y-92462500D02*
X155062500Y-92462500D01*
X162600000Y-87300000D02*
X162500000Y-87300000D01*
X155587500Y-89012500D02*
X156100000Y-89012500D01*
X154600000Y-90000000D02*
X154600000Y-92000000D01*
D21*
X167309800Y-88828880D02*
X167850000Y-89369080D01*
X160971120Y-88828880D02*
X167309800Y-88828880D01*
X152850000Y-86400000D02*
X156300000Y-86400000D01*
D22*
X156100000Y-89012500D02*
X156312500Y-89012500D01*
X155062500Y-92462500D02*
X154600000Y-92000000D01*
X162500000Y-87300000D02*
X160971120Y-88828880D01*
X157050000Y-89750000D02*
X158500000Y-89750000D01*
D21*
X156300000Y-86400000D02*
X158500000Y-88600000D01*
D22*
X158487500Y-94337500D02*
X158500000Y-94350000D01*
D21*
X158312500Y-94537500D02*
X158500000Y-94350000D01*
X158500000Y-94350000D02*
X160500000Y-94350000D01*
D22*
X166889989Y-94850011D02*
X167000001Y-94739999D01*
X156100000Y-94337500D02*
X158487500Y-94337500D01*
X161660000Y-94350000D02*
X162160011Y-94850011D01*
X160500000Y-94350000D02*
X161660000Y-94350000D01*
X162160011Y-94850011D02*
X166889989Y-94850011D01*
X167000001Y-94739999D02*
X167850000Y-93890000D01*
D21*
X167850000Y-93890000D02*
X172840000Y-93890000D01*
X172840000Y-93890000D02*
X174100000Y-92630000D01*
D22*
X158500000Y-92050000D02*
X164800000Y-92050000D01*
X158250000Y-92050000D02*
X158500000Y-92050000D01*
X155000000Y-93400000D02*
X156900000Y-93400000D01*
D21*
X157862500Y-92050000D02*
X158500000Y-92050000D01*
D22*
X154500000Y-93900000D02*
X155000000Y-93400000D01*
X150310000Y-94020000D02*
X151610000Y-95320000D01*
X154500000Y-94700000D02*
X154500000Y-93900000D01*
X156900000Y-93400000D02*
X158250000Y-92050000D01*
X156700000Y-90887500D02*
X157862500Y-92050000D01*
X153880000Y-95320000D02*
X154500000Y-94700000D01*
X151610000Y-95320000D02*
X153880000Y-95320000D01*
X156100000Y-90887500D02*
X156700000Y-90887500D01*
M02*
